<svg width="443" height="377" viewBox="0 0 443 377" fill="none" xmlns="http://www.w3.org/2000/svg">
<path d="M37.9814 337.706H29.6006C29.4475 336.621 29.135 335.658 28.663 334.816C28.1911 333.962 27.5851 333.235 26.8453 332.635C26.1054 332.036 25.2508 331.576 24.2813 331.257C23.3246 330.939 22.285 330.779 21.1624 330.779C19.1342 330.779 17.3675 331.283 15.8623 332.291C14.357 333.286 13.1898 334.74 12.3607 336.653C11.5315 338.554 11.117 340.863 11.117 343.58C11.117 346.374 11.5315 348.721 12.3607 350.621C13.2026 352.522 14.3762 353.957 15.8814 354.926C17.3866 355.896 19.1278 356.381 21.105 356.381C22.2148 356.381 23.2417 356.234 24.1856 355.941C25.1423 355.647 25.9906 355.22 26.7305 354.659C27.4703 354.085 28.0826 353.389 28.5674 352.573C29.0649 351.757 29.4093 350.825 29.6006 349.779L37.9814 349.818C37.7645 351.616 37.2224 353.351 36.355 355.022C35.5003 356.68 34.3459 358.167 32.8917 359.48C31.4502 360.782 29.7282 361.815 27.7255 362.58C25.7355 363.333 23.484 363.709 20.9711 363.709C17.4759 363.709 14.3506 362.918 11.5953 361.336C8.85276 359.755 6.68421 357.465 5.0897 354.467C3.50794 351.47 2.71706 347.84 2.71706 343.58C2.71706 339.307 3.52069 335.671 5.12797 332.673C6.73524 329.676 8.91654 327.392 11.6719 325.823C14.4272 324.242 17.5269 323.451 20.9711 323.451C23.2417 323.451 25.3464 323.77 27.2854 324.407C29.2371 325.045 30.9655 325.976 32.4707 327.201C33.976 328.413 35.2005 329.899 36.1445 331.659C37.1012 333.42 37.7135 335.435 37.9814 337.706ZM49.8496 363.173V323.986H65.31C68.2694 323.986 70.7951 324.516 72.8871 325.575C74.9919 326.621 76.5928 328.107 77.6898 330.033C78.7996 331.946 79.3545 334.198 79.3545 336.787C79.3545 339.39 78.7932 341.628 77.6707 343.503C76.5482 345.366 74.9217 346.794 72.7915 347.789C70.674 348.784 68.11 349.282 65.0995 349.282H54.7479V342.623H63.7601C65.3419 342.623 66.6558 342.406 67.7018 341.973C68.7478 341.539 69.5259 340.888 70.0361 340.021C70.5591 339.154 70.8206 338.076 70.8206 336.787C70.8206 335.486 70.5591 334.389 70.0361 333.496C69.5259 332.603 68.7414 331.927 67.6826 331.468C66.6366 330.996 65.3164 330.76 63.7219 330.76H58.1347V363.173H49.8496ZM71.012 345.34L80.7513 363.173H71.6051L62.0763 345.34H71.012ZM99.4217 323.986V363.173H91.1366V323.986H99.4217ZM133.423 335.257C133.27 333.713 132.613 332.514 131.453 331.659C130.292 330.805 128.716 330.377 126.726 330.377C125.374 330.377 124.233 330.569 123.301 330.951C122.37 331.321 121.656 331.838 121.158 332.501C120.674 333.165 120.431 333.917 120.431 334.759C120.406 335.461 120.552 336.073 120.871 336.596C121.203 337.119 121.656 337.572 122.23 337.954C122.804 338.324 123.467 338.65 124.22 338.93C124.972 339.198 125.776 339.428 126.631 339.619L130.151 340.461C131.861 340.844 133.43 341.354 134.858 341.992C136.287 342.63 137.524 343.414 138.57 344.345C139.616 345.276 140.426 346.374 141 347.636C141.587 348.899 141.887 350.347 141.9 351.98C141.887 354.378 141.275 356.457 140.063 358.218C138.864 359.965 137.129 361.324 134.858 362.293C132.601 363.25 129.877 363.728 126.688 363.728C123.525 363.728 120.769 363.243 118.422 362.274C116.088 361.305 114.264 359.87 112.95 357.969C111.649 356.055 110.966 353.689 110.902 350.87H118.92C119.009 352.184 119.385 353.281 120.049 354.161C120.725 355.029 121.624 355.685 122.746 356.132C123.882 356.566 125.164 356.783 126.592 356.783C127.996 356.783 129.214 356.578 130.247 356.17C131.293 355.762 132.103 355.194 132.677 354.467C133.251 353.74 133.538 352.905 133.538 351.961C133.538 351.081 133.277 350.341 132.754 349.741C132.243 349.142 131.491 348.631 130.496 348.21C129.514 347.789 128.308 347.407 126.879 347.062L122.613 345.991C119.309 345.187 116.7 343.931 114.787 342.221C112.873 340.512 111.923 338.21 111.936 335.314C111.923 332.941 112.554 330.868 113.83 329.095C115.118 327.322 116.885 325.938 119.13 324.943C121.375 323.948 123.926 323.451 126.784 323.451C129.692 323.451 132.231 323.948 134.399 324.943C136.58 325.938 138.277 327.322 139.489 329.095C140.701 330.868 141.326 332.922 141.364 335.257H133.423ZM151.907 330.817V323.986H184.091V330.817H172.094V363.173H163.904V330.817H151.907ZM229.54 343.58C229.54 347.853 228.73 351.489 227.11 354.486C225.502 357.484 223.308 359.774 220.527 361.356C217.759 362.925 214.647 363.709 211.19 363.709C207.707 363.709 204.582 362.918 201.814 361.336C199.046 359.755 196.858 357.465 195.251 354.467C193.644 351.47 192.84 347.84 192.84 343.58C192.84 339.307 193.644 335.671 195.251 332.673C196.858 329.676 199.046 327.392 201.814 325.823C204.582 324.242 207.707 323.451 211.19 323.451C214.647 323.451 217.759 324.242 220.527 325.823C223.308 327.392 225.502 329.676 227.11 332.673C228.73 335.671 229.54 339.307 229.54 343.58ZM221.14 343.58C221.14 340.812 220.725 338.477 219.896 336.577C219.08 334.676 217.925 333.235 216.433 332.252C214.94 331.27 213.193 330.779 211.19 330.779C209.187 330.779 207.44 331.27 205.947 332.252C204.455 333.235 203.294 334.676 202.465 336.577C201.648 338.477 201.24 340.812 201.24 343.58C201.24 346.348 201.648 348.682 202.465 350.583C203.294 352.484 204.455 353.925 205.947 354.907C207.44 355.89 209.187 356.381 211.19 356.381C213.193 356.381 214.94 355.89 216.433 354.907C217.925 353.925 219.08 352.484 219.896 350.583C220.725 348.682 221.14 346.348 221.14 343.58ZM241.604 363.173V323.986H267.55V330.817H249.889V340.155H265.828V346.986H249.889V363.173H241.604ZM315.06 343.58C315.06 347.853 314.25 351.489 312.63 354.486C311.023 357.484 308.829 359.774 306.048 361.356C303.28 362.925 300.167 363.709 296.711 363.709C293.228 363.709 290.103 362.918 287.335 361.336C284.567 359.755 282.379 357.465 280.772 354.467C279.165 351.47 278.361 347.84 278.361 343.58C278.361 339.307 279.165 335.671 280.772 332.673C282.379 329.676 284.567 327.392 287.335 325.823C290.103 324.242 293.228 323.451 296.711 323.451C300.167 323.451 303.28 324.242 306.048 325.823C308.829 327.392 311.023 329.676 312.63 332.673C314.25 335.671 315.06 339.307 315.06 343.58ZM306.66 343.58C306.66 340.812 306.246 338.477 305.417 336.577C304.6 334.676 303.446 333.235 301.953 332.252C300.461 331.27 298.713 330.779 296.711 330.779C294.708 330.779 292.96 331.27 291.468 332.252C289.975 333.235 288.815 334.676 287.985 336.577C287.169 338.477 286.761 340.812 286.761 343.58C286.761 346.348 287.169 348.682 287.985 350.583C288.815 352.484 289.975 353.925 291.468 354.907C292.96 355.89 294.708 356.381 296.711 356.381C298.713 356.381 300.461 355.89 301.953 354.907C303.446 353.925 304.6 352.484 305.417 350.583C306.246 348.682 306.66 346.348 306.66 343.58ZM327.125 363.173V323.986H335.41V356.342H352.21V363.173H327.125ZM371.908 323.986V363.173H363.623V323.986H371.908ZM417.429 323.986V363.173H410.273L393.224 338.509H392.937V363.173H384.652V323.986H391.923L408.838 348.631H409.182V323.986H417.429ZM438.486 323.986V363.173H430.201V323.986H438.486Z" fill="white"/>
<path d="M95.5 0C140.305 0 178.422 12.4569 204.954 37.9033C190.912 54.4992 180.266 74.0879 174.089 95.5771C171.785 91.6155 169.128 87.8981 166.126 84.4824C153.778 70.4334 135.639 61.5 112.5 61.5H60.5V218H112.5C140.458 218 161.73 202.727 173.789 181.367C179.874 203.113 190.528 222.943 204.646 239.733C172.735 267.934 128.257 279 95.5 279H0V0H95.5ZM323 0C372.971 0 416.737 26.7531 440.954 66.8145L385.082 95.1758C372.04 73.3885 349.553 59 324 59C283.683 59 251 94.8172 251 139C251 183.183 283.683 219 324 219C350.788 219 374.205 203.187 386.905 179.615L442.303 208.901C418.385 250.226 373.914 278 323 278C280.201 278 241.954 258.375 216.642 227.572V227.573C216.63 227.559 216.619 227.545 216.607 227.531C216.47 227.364 216.335 227.196 216.198 227.028C215.985 226.766 215.771 226.503 215.56 226.239C215.456 226.11 215.354 225.981 215.251 225.852C215.035 225.58 214.82 225.308 214.605 225.034C214.449 224.834 214.293 224.634 214.138 224.434C214.002 224.259 213.868 224.084 213.733 223.908C213.552 223.672 213.371 223.436 213.191 223.198C213.044 223.003 212.897 222.807 212.75 222.61C212.574 222.375 212.398 222.14 212.224 221.903C212.134 221.782 212.045 221.661 211.956 221.54C211.18 220.482 210.417 219.413 209.67 218.332C209.641 218.291 209.613 218.249 209.584 218.208C209.402 217.944 209.222 217.678 209.041 217.412C208.928 217.246 208.815 217.081 208.703 216.915C208.55 216.687 208.397 216.458 208.245 216.229C208.097 216.005 207.948 215.782 207.801 215.558C207.66 215.343 207.52 215.128 207.38 214.912C207.26 214.728 207.141 214.543 207.022 214.357C206.839 214.072 206.658 213.787 206.477 213.5C206.381 213.348 206.286 213.196 206.19 213.044C206.036 212.797 205.881 212.55 205.729 212.303C205.569 212.045 205.412 211.786 205.255 211.527C205.134 211.328 205.012 211.13 204.892 210.931C204.679 210.577 204.469 210.222 204.26 209.867C204.071 209.546 203.883 209.224 203.696 208.901C203.574 208.69 203.45 208.48 203.329 208.268C203.103 207.872 202.88 207.475 202.657 207.077C202.639 207.045 202.621 207.013 202.604 206.98C202.446 206.698 202.29 206.414 202.134 206.13C202.021 205.925 201.908 205.72 201.797 205.515C201.672 205.285 201.549 205.054 201.426 204.823C201.307 204.601 201.189 204.378 201.071 204.155C200.944 203.915 200.818 203.675 200.692 203.434C200.579 203.215 200.466 202.997 200.354 202.778C200.21 202.499 200.067 202.218 199.925 201.938C199.839 201.768 199.755 201.598 199.67 201.429C199.535 201.159 199.401 200.89 199.268 200.619C199.128 200.336 198.991 200.053 198.854 199.769C198.762 199.579 198.67 199.391 198.579 199.201C198.353 198.728 198.13 198.254 197.909 197.778C197.778 197.496 197.65 197.211 197.521 196.928C197.439 196.75 197.358 196.572 197.277 196.394C197.175 196.167 197.075 195.941 196.975 195.714C196.84 195.412 196.706 195.11 196.574 194.807C196.486 194.603 196.398 194.399 196.311 194.195C196.214 193.97 196.116 193.745 196.021 193.519C195.902 193.239 195.785 192.96 195.669 192.68C195.572 192.446 195.475 192.211 195.379 191.977C195.287 191.753 195.196 191.53 195.105 191.306C194.983 191.003 194.862 190.699 194.742 190.396C194.668 190.207 194.592 190.018 194.519 189.829C194.369 189.446 194.222 189.062 194.076 188.677C194.032 188.562 193.988 188.447 193.944 188.332C193.757 187.834 193.571 187.335 193.389 186.834C193.347 186.72 193.307 186.605 193.266 186.49C193.124 186.098 192.984 185.705 192.846 185.311C192.768 185.089 192.692 184.867 192.615 184.646C192.526 184.387 192.437 184.129 192.35 183.87C192.266 183.622 192.183 183.373 192.101 183.124C192.011 182.854 191.922 182.585 191.834 182.314C191.757 182.077 191.68 181.84 191.604 181.602C191.509 181.306 191.417 181.011 191.324 180.715C191.26 180.51 191.196 180.306 191.133 180.101C191.036 179.786 190.942 179.47 190.848 179.154C190.784 178.942 190.72 178.731 190.657 178.519C190.522 178.058 190.39 177.596 190.259 177.133C190.247 177.09 190.234 177.047 190.222 177.004C190.052 176.403 189.888 175.8 189.727 175.196C189.717 175.16 189.708 175.124 189.698 175.088C189.604 174.732 189.509 174.376 189.417 174.02L189.345 173.738C189.295 173.544 189.248 173.35 189.199 173.155C189.134 172.895 189.069 172.635 189.005 172.375C188.941 172.113 188.878 171.85 188.815 171.588C188.744 171.286 188.672 170.985 188.603 170.683C188.553 170.47 188.504 170.256 188.456 170.043C188.39 169.752 188.326 169.461 188.262 169.17C188.201 168.892 188.14 168.613 188.08 168.334C188.015 168.031 187.952 167.727 187.89 167.423C187.852 167.241 187.813 167.06 187.776 166.878C187.557 165.795 187.351 164.707 187.157 163.614C187.109 163.34 187.063 163.065 187.016 162.79C186.973 162.54 186.929 162.29 186.888 162.04C186.853 161.829 186.819 161.618 186.785 161.407C186.73 161.065 186.676 160.722 186.623 160.379C186.591 160.171 186.56 159.962 186.529 159.754C186.479 159.415 186.43 159.076 186.382 158.736C186.35 158.513 186.319 158.29 186.289 158.066C186.244 157.734 186.2 157.401 186.157 157.067C186.128 156.842 186.098 156.616 186.07 156.39C186.033 156.088 185.997 155.786 185.962 155.483C185.934 155.241 185.904 154.999 185.877 154.757C185.693 153.111 185.537 151.456 185.41 149.793C185.395 149.592 185.382 149.391 185.367 149.189C185.341 148.821 185.315 148.452 185.291 148.083C185.28 147.905 185.27 147.727 185.259 147.549C185.237 147.192 185.216 146.835 185.197 146.478C185.184 146.23 185.173 145.983 185.161 145.735C185.146 145.416 185.132 145.096 185.119 144.775C185.11 144.543 185.1 144.311 185.092 144.078C185.08 143.758 185.071 143.438 185.062 143.117C185.054 142.854 185.046 142.591 185.04 142.327C185.03 141.907 185.023 141.486 185.017 141.064C185.015 140.95 185.012 140.835 185.011 140.721C185.004 140.148 185 139.574 185 139C185 138.426 185.004 137.852 185.011 137.279C185.012 137.147 185.016 137.016 185.018 136.884C185.024 136.455 185.031 136.026 185.041 135.598C185.047 135.359 185.055 135.121 185.062 134.883C185.071 134.542 185.081 134.202 185.094 133.862C185.101 133.663 185.109 133.463 185.117 133.264C185.131 132.922 185.146 132.58 185.162 132.239C185.173 132.02 185.183 131.8 185.194 131.581C185.215 131.189 185.237 130.798 185.261 130.407C185.271 130.246 185.28 130.084 185.29 129.923C185.317 129.498 185.347 129.073 185.378 128.648C185.39 128.489 185.401 128.329 185.413 128.169C185.539 126.526 185.693 124.89 185.875 123.264C185.903 123.014 185.933 122.764 185.962 122.515C185.996 122.222 186.03 121.93 186.066 121.639C186.095 121.404 186.126 121.169 186.156 120.935C186.201 120.585 186.247 120.235 186.295 119.886C186.321 119.696 186.347 119.506 186.374 119.316C186.422 118.975 186.472 118.633 186.522 118.292C186.556 118.064 186.59 117.837 186.625 117.609C186.671 117.309 186.719 117.008 186.767 116.708C186.805 116.466 186.844 116.223 186.884 115.981C186.971 115.455 187.06 114.93 187.153 114.406C187.177 114.271 187.203 114.136 187.228 114.001C187.303 113.581 187.38 113.161 187.46 112.742C187.487 112.601 187.514 112.46 187.541 112.319C187.611 111.956 187.682 111.593 187.755 111.23C187.803 110.992 187.853 110.753 187.902 110.515C187.965 110.212 188.027 109.91 188.092 109.608C188.138 109.393 188.184 109.179 188.231 108.964C188.308 108.612 188.386 108.262 188.466 107.911C188.508 107.727 188.55 107.543 188.593 107.359C188.661 107.062 188.731 106.766 188.802 106.47C188.863 106.212 188.923 105.954 188.986 105.696C189.371 104.12 189.782 102.555 190.22 101.001C190.255 100.877 190.291 100.754 190.326 100.63C190.427 100.275 190.529 99.9209 190.633 99.5674C190.706 99.319 190.779 99.071 190.854 98.8232C190.936 98.5462 191.02 98.2695 191.104 97.9932C191.178 97.7542 191.252 97.5157 191.326 97.2773C191.412 97.0016 191.499 96.7262 191.587 96.4512C191.657 96.2303 191.727 96.0094 191.799 95.7891C191.908 95.4532 192.018 95.118 192.13 94.7832C192.187 94.6124 192.244 94.442 192.302 94.2715C192.413 93.9427 192.525 93.6148 192.639 93.2871C192.706 93.0929 192.771 92.898 192.839 92.7041C193.023 92.1794 193.211 91.6566 193.401 91.1348C193.42 91.0827 193.439 91.0305 193.458 90.9785C193.614 90.5515 193.772 90.1252 193.932 89.7002C193.984 89.5603 194.039 89.421 194.092 89.2812C194.224 88.933 194.357 88.5851 194.492 88.2383C194.574 88.0285 194.658 87.8196 194.74 87.6104C194.868 87.2882 194.995 86.9664 195.125 86.6455C195.189 86.4859 195.254 86.3264 195.319 86.167C195.45 85.8473 195.582 85.5284 195.715 85.21C195.789 85.0319 195.863 84.8535 195.938 84.6758C196.075 84.3488 196.216 84.023 196.356 83.6973C196.44 83.5028 196.524 83.3083 196.608 83.1143C197.229 81.6929 197.871 80.2837 198.537 78.8877C198.633 78.6867 198.73 78.4866 198.827 78.2861C198.965 78 199.103 77.7138 199.243 77.4287C199.369 77.1722 199.497 76.9168 199.625 76.6611C199.717 76.4768 199.809 76.2923 199.901 76.1084C200.037 75.8386 200.175 75.5695 200.312 75.3008C200.418 75.0941 200.525 74.8877 200.632 74.6816C200.756 74.442 200.881 74.2027 201.007 73.9639C201.141 73.7089 201.277 73.4552 201.413 73.2012C201.523 72.9964 201.631 72.7911 201.741 72.5869C201.919 72.258 202.1 71.9308 202.28 71.6035C202.349 71.4785 202.416 71.3523 202.485 71.2275C202.741 70.7679 202.998 70.3099 203.259 69.8535C203.338 69.715 203.419 69.5776 203.498 69.4395C203.68 69.1225 203.864 68.8066 204.049 68.4912C204.147 68.3231 204.246 68.155 204.345 67.9873C204.513 67.7023 204.682 67.4175 204.853 67.1338C204.977 66.9272 205.102 66.7215 205.228 66.5156C205.369 66.2835 205.51 66.0515 205.652 65.8203C205.786 65.6029 205.922 65.3865 206.057 65.1699C206.194 64.9501 206.331 64.7307 206.47 64.5117C206.629 64.2592 206.788 64.0063 206.949 63.7549C207.089 63.5364 207.231 63.3192 207.372 63.1016C207.503 62.8999 207.633 62.698 207.765 62.4971C207.948 62.2177 208.133 61.94 208.318 61.6621C208.901 60.7872 209.493 59.9192 210.095 59.0586C210.17 58.9514 210.243 58.8433 210.318 58.7363C210.492 58.4898 210.667 58.2444 210.842 57.999C210.976 57.8104 211.111 57.6216 211.246 57.4336C211.405 57.2129 211.565 56.9931 211.726 56.7734C211.906 56.5263 212.088 56.2801 212.27 56.0342C212.39 55.8712 212.511 55.7083 212.632 55.5459C212.796 55.3257 212.961 55.1059 213.127 54.8867C213.277 54.6878 213.428 54.4891 213.579 54.291C213.768 54.0435 213.959 53.797 214.149 53.5508C214.275 53.3886 214.4 53.226 214.526 53.0645C215.155 52.2603 215.793 51.4635 216.438 50.6738C241.749 19.7294 280.087 0 323 0Z" fill="white"/>
</svg>
